<svg width="28" height="34" viewBox="0 0 28 34" fill="none" xmlns="http://www.w3.org/2000/svg">
<path d="M24.1061 0.641724H23.6486C21.5957 0.641724 19.9315 2.30591 19.9315 4.35879C19.9315 6.41168 21.5957 8.07586 23.6486 8.07586H24.1061C26.1589 8.07586 27.8231 6.41168 27.8231 4.35879C27.8231 2.30591 26.1589 0.641724 24.1061 0.641724Z" fill="#C3DAFF"/>
<path d="M26.0819 28.1185C27.2427 26.308 27.8231 24.1834 27.8231 21.7445V15.6945H19.9315V21.0576C19.9315 22.1865 19.6813 23.1929 19.1807 24.0769C18.6802 24.9608 17.9826 25.6531 17.088 26.1536C16.2041 26.6542 15.171 26.9044 13.9889 26.9044C12.8067 26.9044 11.7684 26.6542 10.8738 26.1536C9.9792 25.6531 9.28163 24.9608 8.78108 24.0769C8.29119 23.1929 8.04623 22.1865 8.04623 21.0576V15.6945H0.138672V21.7445C0.138672 24.1834 0.713766 26.308 1.86396 28.1185C3.01415 29.9184 4.62761 31.3135 6.70435 32.3039C8.78108 33.2837 11.2093 33.7736 13.9889 33.7736C16.7366 33.7736 19.1488 33.2837 21.2255 32.3039C23.3022 31.3135 24.921 29.9184 26.0819 28.1185Z" fill="#C3DAFF"/>
<path d="M4.32916 0.641724H3.85574C1.80286 0.641724 0.138672 2.30591 0.138672 4.35879C0.138672 6.41168 1.80286 8.07586 3.85574 8.07586H4.32916C6.38204 8.07586 8.04623 6.41168 8.04623 4.35879C8.04623 2.30591 6.38204 0.641724 4.32916 0.641724Z" fill="#C3DAFF"/>
</svg>
