<svg width="39" height="40" viewBox="0 0 39 40" fill="none" xmlns="http://www.w3.org/2000/svg">
<path d="M38.2314 20C38.2314 24.1629 37.4131 27.7387 35.7764 30.7274C34.1575 33.7162 31.9337 35.9844 29.1051 37.5321C26.2765 39.0799 23.0921 39.8537 19.5518 39.8537C15.9938 39.8537 12.7916 39.0799 9.94517 37.5321C7.11654 35.9844 4.88389 33.7162 3.2472 30.7274C1.6283 27.7387 0.818848 24.1629 0.818848 20C0.818848 15.8371 1.6283 12.2613 3.2472 9.27256C4.88389 6.28382 7.11654 4.01559 9.94517 2.46785C12.7738 0.92011 15.976 0.14624 19.5518 0.14624C23.0921 0.14624 26.2765 0.92011 29.1051 2.46785C31.9337 4.01559 34.1575 6.28382 35.7764 9.27256C37.4131 12.2613 38.2314 15.8371 38.2314 20ZM27.7709 20C27.7709 16.4598 27.0592 13.7468 25.636 11.861C24.2306 9.95748 22.2025 9.00571 19.5518 9.00571C16.8833 9.00571 14.8374 9.95748 13.4142 11.861C11.991 13.7468 11.2794 16.4598 11.2794 20C11.2794 23.5402 11.991 26.2621 13.4142 28.1656C14.8374 30.0514 16.8833 30.9943 19.5518 30.9943C22.2025 30.9943 24.2306 30.0514 25.636 28.1656C27.0592 26.2621 27.7709 23.5402 27.7709 20Z" fill="#0641C1"/>
</svg>
