<svg width="31" height="34" viewBox="0 0 31 34" fill="none" xmlns="http://www.w3.org/2000/svg">
<path d="M22.1234 11.3289C21.9424 10.658 21.6761 10.0669 21.3247 9.55574C20.9733 9.03389 20.5419 8.59192 20.0307 8.22982C19.5195 7.86772 18.9338 7.59615 18.2735 7.4151C17.6132 7.2234 16.889 7.12755 16.1009 7.12755C14.5141 7.12755 13.1402 7.51095 11.9794 8.27775C10.8292 9.04454 9.93994 10.1628 9.31159 11.6325C8.68325 13.0915 8.36907 14.8647 8.36907 16.9521C8.36907 19.0501 8.67259 20.8393 9.27964 22.3197C9.88669 23.8 10.7653 24.9289 11.9155 25.7063C13.0657 26.4838 14.4608 26.8725 16.1009 26.8725C17.5493 26.8725 18.774 26.6382 19.7751 26.1696C20.7869 25.6904 21.5537 25.0141 22.0755 24.1408C22.5974 23.2675 22.8583 22.2398 22.8583 21.0577L24.328 21.2334H16.3725V15.4664H30.4783V19.7956C30.4783 22.7244 29.8553 25.2324 28.6092 27.3198C27.3739 29.4072 25.6699 31.01 23.4973 32.1282C21.3354 33.2465 18.8486 33.8056 16.037 33.8056C12.9166 33.8056 10.1742 33.1293 7.80995 31.7768C5.44567 30.4243 3.60323 28.4966 2.28264 25.9939C0.962054 23.4805 0.301758 20.4985 0.301758 17.048C0.301758 14.3642 0.70113 11.9839 1.49987 9.90719C2.29862 7.8198 3.41154 6.05191 4.83862 4.60352C6.27636 3.15514 7.93775 2.05819 9.82279 1.3127C11.7185 0.567204 13.7579 0.194458 15.9412 0.194458C17.8369 0.194458 19.5994 0.46603 21.2288 1.00918C22.8689 1.55232 24.3173 2.31912 25.574 3.30956C26.8414 4.3 27.8691 5.47682 28.6572 6.84001C29.4453 8.2032 29.9352 9.69951 30.1269 11.3289H22.1234Z" fill="white"/>
</svg>
